<svg width="87" height="80" viewBox="0 0 87 80" fill="none" xmlns="http://www.w3.org/2000/svg">
<path d="M78.7676 44.7795C78.7516 44.7795 78.7349 44.7795 78.7189 44.7795C78.6463 44.7795 72.4554 44.8729 69.4929 37.872C68.8366 36.1965 68.4326 34.432 68.2943 32.6368C69.6552 31.0724 70.5693 29.1671 70.9396 27.1229C71.3099 25.0788 71.1227 22.972 70.3976 21.0261C69.6726 19.0803 68.4369 17.3679 66.8216 16.0707C65.2063 14.7735 63.2717 13.9398 61.2229 13.6581V2.63589C61.2229 2.16991 61.0387 1.72301 60.7108 1.39352C60.3829 1.06402 59.9381 0.878906 59.4744 0.878906H1.87358C1.64393 0.87881 1.41651 0.924191 1.20432 1.01245C0.992125 1.10072 0.799325 1.23013 0.636935 1.3933C0.474546 1.55647 0.34575 1.7502 0.257909 1.96341C0.170068 2.17662 0.124905 2.40513 0.125 2.63589V77.4249C0.125 77.8909 0.309225 78.3378 0.637148 78.6673C0.965071 78.9968 1.40983 79.1819 1.87358 79.1819H59.4729C59.9366 79.1817 60.3812 78.9966 60.7091 78.6671C61.037 78.3377 61.2213 77.8909 61.2215 77.4249V69.3714H82.2887C82.7524 69.3712 83.1971 69.1861 83.525 68.8566C83.8528 68.5272 84.0371 68.0804 84.0373 67.6144V60.3215H84.8233C85.287 60.3213 85.7317 60.1362 86.0596 59.8067C86.3875 59.4772 86.5717 59.0305 86.5719 58.5645V52.6264C86.57 50.5467 85.7473 48.5527 84.2843 47.0817C82.8212 45.6107 80.8373 44.7827 78.7676 44.7795ZM67.6288 25.0563C67.6317 26.1143 67.4245 27.1624 67.0193 28.139C66.6142 29.1156 66.0192 30.0012 65.2693 30.744C65.1005 30.9124 64.9676 31.1137 64.8788 31.3355C64.79 31.5572 64.7471 31.7949 64.7528 32.0338C64.8561 34.5076 65.3703 36.9467 66.274 39.2501C70.077 48.2358 78.1254 48.2847 78.7829 48.2964C79.923 48.3018 81.0146 48.7602 81.8195 49.5717C82.6243 50.3831 83.0769 51.4815 83.0784 52.6271V56.8032H82.6483C82.4137 56.7548 82.1718 56.7548 81.9371 56.8032H36.243V52.625C36.244 51.4864 36.6908 50.3939 37.4868 49.5836C38.2828 48.7732 39.3641 48.3101 40.4971 48.2942C41.4553 48.3423 48.9327 48.4183 52.8672 39.4983C53.7837 37.1134 54.3374 34.6034 54.5098 32.0528C54.5247 31.8045 54.4871 31.5559 54.3994 31.3232C54.3118 31.0906 54.1761 30.8792 54.0012 30.7031C53.0784 29.7699 52.3986 28.6225 52.022 27.3625C51.6454 26.1024 51.5836 24.7686 51.8421 23.4788C52.1006 22.1891 52.6714 20.9832 53.5041 19.9679C54.3367 18.9526 55.4055 18.159 56.6159 17.6575C57.8264 17.1559 59.1412 16.9618 60.4441 17.0923C61.747 17.2227 62.9978 17.6738 64.0859 18.4056C65.174 19.1373 66.0659 20.1272 66.6827 21.2877C67.2995 22.4482 67.6222 23.7436 67.6223 25.0592L67.6288 25.0563ZM57.7243 75.6665H3.62289V4.38704H57.7243V13.7121C55.7256 14.0547 53.8532 14.924 52.2983 16.2315C50.7433 17.5389 49.5615 19.2375 48.8735 21.1539C48.1855 23.0703 48.016 25.1359 48.3822 27.1397C48.7484 29.1434 49.6373 31.0137 50.9581 32.5594C50.785 34.4472 50.3525 36.3019 49.673 38.0705C46.587 45.07 40.9127 44.8021 40.6816 44.786C40.6359 44.786 40.5908 44.7802 40.5451 44.7802C38.4759 44.7831 36.4923 45.6104 35.0292 47.0807C33.5662 48.5511 32.7432 50.5443 32.7407 52.6235V58.5624C32.7407 59.0283 32.925 59.4752 33.2529 59.8047C33.5808 60.1342 34.0256 60.3193 34.4893 60.3193H35.4584L35.4991 67.6188C35.5016 68.0831 35.6869 68.5275 36.0146 68.8548C36.3423 69.1821 36.7856 69.3658 37.2477 69.3656H57.7243V75.6665ZM80.5423 65.856H38.989L38.9585 60.3208H80.5431L80.5423 65.856Z" fill="black"/>
<path d="M29.227 16.7217H9.87053C9.40668 16.7217 8.96183 16.9068 8.63384 17.2364C8.30585 17.566 8.12158 18.013 8.12158 18.479C8.12158 18.9451 8.30585 19.3921 8.63384 19.7217C8.96183 20.0512 9.40668 20.2364 9.87053 20.2364H29.227C29.6908 20.2364 30.1357 20.0512 30.4637 19.7217C30.7917 19.3921 30.9759 18.9451 30.9759 18.479C30.9759 18.013 30.7917 17.566 30.4637 17.2364C30.1357 16.9068 29.6908 16.7217 29.227 16.7217Z" fill="black"/>
<path d="M29.227 25.4868H9.87053C9.40668 25.4868 8.96183 25.672 8.63384 26.0015C8.30585 26.3311 8.12158 26.7781 8.12158 27.2442C8.12158 27.7102 8.30585 28.1572 8.63384 28.4868C8.96183 28.8164 9.40668 29.0015 9.87053 29.0015H29.227C29.6908 29.0015 30.1357 28.8164 30.4637 28.4868C30.7917 28.1572 30.9759 27.7102 30.9759 27.2442C30.9759 26.7781 30.7917 26.3311 30.4637 26.0015C30.1357 25.672 29.6908 25.4868 29.227 25.4868Z" fill="black"/>
</svg>
