<svg width="89" height="80" viewBox="0 0 89 80" fill="none" xmlns="http://www.w3.org/2000/svg">
<path d="M41.7654 36.745H32.15C30.9349 36.7437 29.7699 36.2583 28.9105 35.3951C28.0511 34.532 27.5675 33.3616 27.5658 32.1407C27.5658 30.0923 28.6832 25.6294 29.6686 21.6922C30.5013 18.3663 31.2885 15.2247 31.5819 13.0195C31.7323 11.8393 31.626 10.6404 31.2705 9.50543C30.9149 8.37048 30.3186 7.32655 29.5226 6.44565C28.5521 5.341 27.3589 4.45636 26.0222 3.85044C24.6854 3.24451 23.2357 2.93115 21.7693 2.93115C20.3028 2.93115 18.8531 3.24451 17.5164 3.85044C16.1797 4.45636 14.9865 5.341 14.016 6.44565C13.2209 7.32635 12.6253 8.36984 12.2704 9.50418C11.9154 10.6385 11.8095 11.8367 11.96 13.0162C12.4782 15.9912 13.1531 18.9365 13.9818 21.8397C14.9981 25.7223 16.1503 30.1233 16.1503 32.1387C16.1486 33.3596 15.665 34.53 14.8056 35.3931C13.9462 36.2563 12.7812 36.7417 11.5661 36.7429H1.7712C1.56368 36.743 1.3582 36.7842 1.16653 36.8642C0.974861 36.9441 0.800754 37.0612 0.654166 37.2088C0.507579 37.3564 0.391386 37.5316 0.312234 37.7244C0.233081 37.9171 0.192521 38.1237 0.192873 38.3322V78.3624C0.192521 78.571 0.233076 78.7776 0.312221 78.9704C0.391365 79.1632 0.507547 79.3384 0.654126 79.4861C0.800705 79.6337 0.974807 79.7509 1.16648 79.8309C1.35816 79.9109 1.56364 79.9522 1.7712 79.9524H41.7654C41.9728 79.9524 42.1782 79.9113 42.3699 79.8316C42.5615 79.7518 42.7357 79.6349 42.8824 79.4875C43.029 79.3401 43.1454 79.1651 43.2248 78.9725C43.3042 78.78 43.345 78.5736 43.345 78.3651V38.3322C43.3452 38.1237 43.3045 37.9172 43.2251 37.7246C43.1458 37.5319 43.0295 37.3569 42.8827 37.2095C42.736 37.062 42.5618 36.9451 42.3701 36.8654C42.1783 36.7857 41.9729 36.7448 41.7654 36.745ZM11.5654 39.9195C13.6186 39.9181 15.5874 39.0982 17.0396 37.6398C18.4919 36.1815 19.309 34.2037 19.3117 32.1407C19.3117 29.7174 18.2083 25.4975 17.0393 21.0339C16.2486 18.2553 15.5986 15.4382 15.0919 12.5934C15.0028 11.8627 15.0732 11.1213 15.2984 10.4208C15.5235 9.72022 15.8979 9.07741 16.3955 8.53709C17.0695 7.77357 17.897 7.16234 18.8234 6.74376C19.7497 6.32517 20.7539 6.10874 21.7696 6.10874C22.7853 6.10874 23.7895 6.32517 24.7159 6.74376C25.6422 7.16234 26.4697 7.77357 27.1437 8.53709C27.6421 9.07778 28.0173 9.72115 28.243 10.4224C28.4687 11.1236 28.5396 11.8659 28.4507 12.5975C28.1828 14.6263 27.3789 17.8257 26.6044 20.9201C25.4736 25.4362 24.4064 29.7012 24.4064 32.1434C24.4096 34.2056 25.2266 36.1823 26.6783 37.64C28.1299 39.0978 30.0977 39.9175 32.15 39.9195H40.189V48.397H3.35355V39.9195H11.5681H11.5654ZM3.35355 76.7758V51.5715H40.1877V76.7758H3.35355Z" fill="black"/>
<path d="M26.6902 12.7062C26.6902 11.7288 26.4018 10.7734 25.8614 9.9608C25.321 9.14818 24.553 8.51481 23.6544 8.1408C22.7557 7.76679 21.7669 7.66893 20.8129 7.8596C19.859 8.05027 18.9827 8.5209 18.2949 9.21198C17.6071 9.90307 17.1387 10.7836 16.949 11.7421C16.7592 12.7007 16.8566 13.6943 17.2288 14.5972C17.6011 15.5001 18.2314 16.2719 19.0401 16.8149C19.8489 17.3579 20.7997 17.6477 21.7724 17.6477C23.0762 17.6461 24.3261 17.1249 25.2481 16.1986C26.17 15.2722 26.6886 14.0162 26.6902 12.7062ZM20.0132 12.7062C20.0132 12.3567 20.1163 12.0151 20.3095 11.7245C20.5028 11.4339 20.7774 11.2074 21.0987 11.0737C21.4201 10.9399 21.7736 10.9049 22.1148 10.9731C22.4559 11.0413 22.7692 11.2096 23.0152 11.4567C23.2611 11.7038 23.4286 12.0187 23.4964 12.3614C23.5643 12.7042 23.5295 13.0595 23.3964 13.3824C23.2633 13.7052 23.0379 13.9812 22.7487 14.1754C22.4595 14.3695 22.1195 14.4731 21.7717 14.4731C21.3055 14.4726 20.8585 14.2863 20.5288 13.955C20.1991 13.6238 20.0137 13.1746 20.0132 12.7062Z" fill="black"/>
<path d="M87.9329 14.5827L79.3533 8.0862C79.0797 7.87866 78.7462 7.76641 78.4033 7.76646H71.9051V2.46617C71.9051 2.0452 71.7387 1.64147 71.4425 1.3438C71.1462 1.04614 70.7444 0.878906 70.3255 0.878906H58.8209C58.6135 0.878906 58.4081 0.919962 58.2164 0.999729C58.0248 1.0795 57.8506 1.19641 57.704 1.3438C57.5573 1.4912 57.4409 1.66617 57.3615 1.85875C57.2821 2.05132 57.2413 2.25772 57.2413 2.46617V7.76983H42.1681C41.9607 7.76947 41.7554 7.81016 41.5636 7.88957C41.3719 7.96897 41.1977 8.08554 41.0508 8.23262C40.9039 8.3797 40.7873 8.55441 40.7076 8.74676C40.628 8.93912 40.5868 9.14537 40.5864 9.35372V21.7274C40.5863 21.9358 40.6271 22.1423 40.7065 22.3349C40.7858 22.5275 40.9022 22.7025 41.0489 22.8499C41.1956 22.9973 41.3698 23.1142 41.5615 23.194C41.7532 23.2737 41.9586 23.3147 42.1661 23.3146H57.2393V78.3632C57.2394 78.7841 57.4059 79.1878 57.7021 79.4854C57.9983 79.783 58.4 79.9503 58.8189 79.9505H70.3275C70.7464 79.9503 71.1481 79.783 71.4443 79.4854C71.7405 79.1878 71.907 78.7841 71.9071 78.3632V23.3146H86.9803C87.3993 23.3146 87.8011 23.1474 88.0973 22.8497C88.3936 22.552 88.56 22.1483 88.56 21.7274V15.8502C88.5603 15.6045 88.5038 15.3622 88.395 15.1422C88.2862 14.9223 88.128 14.7307 87.9329 14.5827ZM60.3993 4.05074H68.7465V7.76713H60.4006L60.3993 4.05074ZM68.7465 76.7766H60.4006V23.3146H68.7478L68.7465 76.7766ZM85.404 20.1401H43.7451V10.941H77.8741L85.404 16.6418V20.1401Z" fill="black"/>
</svg>
