<svg width="81" height="80" viewBox="0 0 81 80" fill="none" xmlns="http://www.w3.org/2000/svg">
<path d="M78.4852 0.878906H1.75035C1.52408 0.878906 1.30003 0.923688 1.09099 1.01069C0.881942 1.0977 0.691998 1.22522 0.532002 1.38599C0.372006 1.54675 0.245089 1.73761 0.1585 1.94766C0.0719107 2.15771 0.0273438 2.38284 0.0273438 2.6102V35.2384C0.0273438 35.6975 0.208875 36.1379 0.532002 36.4626C0.855129 36.7872 1.29338 36.9697 1.75035 36.9697H7.66757V77.394C7.66757 77.8531 7.8491 78.2935 8.17222 78.6182C8.49535 78.9428 8.93361 79.1252 9.39058 79.1252H71.5733C72.03 79.1244 72.4678 78.9417 72.7907 78.6172C73.1137 78.2927 73.2955 77.8528 73.2963 77.394V36.9776H78.4793C78.9362 36.9776 79.3745 36.7952 79.6976 36.4706C80.0208 36.1459 80.2023 35.7055 80.2023 35.2464V2.61819C80.2033 2.39066 80.1597 2.16516 80.074 1.95458C79.9883 1.744 79.862 1.55246 79.7026 1.39093C79.5431 1.2294 79.3535 1.10103 79.1446 1.01317C78.9358 0.925317 78.7117 0.879691 78.4852 0.878906ZM69.8503 75.668H11.1195V36.9803H29.6571C29.9413 36.9805 30.2212 36.9101 30.4718 36.7754C30.7223 36.6406 30.9358 36.4457 31.0932 36.2079L40.4849 22.0539L49.8767 36.2052C50.0343 36.4427 50.2479 36.6375 50.4984 36.7722C50.7489 36.907 51.0286 36.9775 51.3127 36.9776H69.849V75.6653L69.8503 75.668ZM76.7596 33.5091H52.2398L41.921 17.9654C41.7545 17.7405 41.538 17.5578 41.2887 17.4319C41.0394 17.306 40.7643 17.2405 40.4853 17.2405C40.2063 17.2405 39.9311 17.306 39.6819 17.4319C39.4326 17.5578 39.216 17.7405 39.0495 17.9654L28.7333 33.5091H3.47601V4.34681H76.7589L76.7596 33.5091Z" fill="black"/>
<path d="M48.4419 42.7603H32.5272C32.0702 42.7603 31.632 42.9427 31.3089 43.2673C30.9857 43.592 30.8042 44.0324 30.8042 44.4915V68.4879C30.8042 68.9471 30.9857 69.3874 31.3089 69.7121C31.632 70.0368 32.0702 70.2192 32.5272 70.2192H48.4432C48.8999 70.2183 49.3376 70.0356 49.6606 69.7111C49.9835 69.3866 50.1653 68.9468 50.1662 68.4879V44.4942C50.1655 44.0348 49.9836 43.5944 49.6605 43.2694C49.3373 42.9444 48.8991 42.7613 48.4419 42.7603ZM46.7188 66.7533H34.2529V46.2282H46.7169V66.7533H46.7188Z" fill="black"/>
</svg>
