<svg width="83" height="78" viewBox="0 0 83 78" fill="none" xmlns="http://www.w3.org/2000/svg">
<path d="M43.8909 58.4022H29.9122C29.5483 58.4023 29.1994 58.5473 28.942 58.8051C28.6847 59.063 28.5401 59.4127 28.5399 59.7774V75.2488H23.6493V59.7774C23.6491 59.4127 23.5045 59.063 23.2471 58.8051C22.9898 58.5473 22.6409 58.4023 22.2769 58.4022H4.88084L18.4344 44.8189C18.6261 44.6265 18.7565 44.3815 18.8093 44.1148C18.8621 43.8482 18.8348 43.5718 18.7309 43.3207C18.627 43.0695 18.4512 42.8549 18.2256 42.7039C18 42.5528 17.7348 42.4722 17.4636 42.4721H9.17912L23.0506 28.5716C23.1782 28.4434 23.2795 28.2913 23.3486 28.1239C23.3486 28.1168 23.3525 28.1092 23.355 28.1028C23.4186 27.9432 23.4515 27.7731 23.452 27.6013C23.4513 27.4295 23.4181 27.2593 23.3544 27.0998C23.3544 27.0928 23.3506 27.0851 23.348 27.0787C23.2791 26.9107 23.1776 26.758 23.0494 26.6295C22.9212 26.5011 22.7689 26.3994 22.6012 26.3303C22.5948 26.3303 22.5878 26.3265 22.5801 26.3239C22.4208 26.2607 22.2511 26.2277 22.0797 26.2267H14.1087L26.1999 14.1121L33.3392 21.3348C33.4659 21.464 33.6167 21.5668 33.7831 21.6374C33.9495 21.7079 34.1281 21.7449 34.3088 21.7461C34.4895 21.7474 34.6686 21.7128 34.836 21.6445C35.0033 21.5762 35.1555 21.4754 35.2839 21.348C35.4122 21.2206 35.5142 21.069 35.584 20.902C35.6538 20.735 35.69 20.5558 35.6905 20.3748C35.691 20.1937 35.6558 20.0143 35.5869 19.8469C35.5181 19.6795 35.4169 19.5274 35.2892 19.3993L27.1829 11.1934C27.0558 11.0647 26.9045 10.9625 26.7377 10.8927C26.571 10.8229 26.3921 10.7868 26.2114 10.7866H26.2044C25.8404 10.7868 25.4913 10.9315 25.2335 11.1889L9.82763 26.6278C9.63552 26.8201 9.50466 27.0652 9.45164 27.3321C9.39861 27.599 9.42579 27.8756 9.52973 28.127C9.63368 28.3784 9.80971 28.5933 10.0356 28.7444C10.2614 28.8955 10.5269 28.976 10.7985 28.9759H18.7682L4.89552 42.8783C4.70341 43.0706 4.57256 43.3157 4.51953 43.5826C4.4665 43.8495 4.49368 44.1261 4.59762 44.3775C4.70157 44.6289 4.8776 44.8438 5.10345 44.9949C5.3293 45.146 5.59481 45.2265 5.86636 45.2264H14.1508L0.597233 58.8051C0.405123 58.9975 0.274272 59.2426 0.221244 59.5095C0.168216 59.7763 0.195395 60.053 0.299339 60.3044C0.403284 60.5558 0.579322 60.7706 0.80517 60.9217C1.03102 61.0728 1.29652 61.1534 1.56808 61.1532H20.9046V76.6246C20.9048 76.9893 21.0494 77.339 21.3067 77.5969C21.5641 77.8548 21.913 77.9997 22.2769 77.9999H29.9116C30.2755 77.9997 30.6245 77.8548 30.8818 77.5969C31.1391 77.339 31.2838 76.9893 31.2839 76.6246V61.1545H43.8903C44.247 61.1436 44.5855 60.9939 44.8339 60.7372C45.0824 60.4805 45.2214 60.1369 45.2214 59.7793C45.2214 59.4216 45.0824 59.0781 44.8339 58.8214C44.5855 58.5646 44.247 58.415 43.8903 58.4041L43.8909 58.4022Z" fill="#231F20"/>
<path d="M82.1363 48.8858L68.4264 35.0122H76.7881C77.0589 35.0124 77.3238 34.9323 77.5494 34.7819C77.7749 34.6315 77.9509 34.4175 78.0552 34.167C78.1595 33.9164 78.1874 33.6406 78.1355 33.3741C78.0836 33.1077 77.9541 32.8627 77.7634 32.6699L63.7324 18.47H71.7653C72.0363 18.4702 72.3013 18.39 72.5269 18.2394C72.7525 18.0889 72.9285 17.8748 73.0329 17.6241C73.1372 17.3735 73.1651 17.0975 73.1131 16.8309C73.0611 16.5644 72.9315 16.3193 72.7406 16.1264L57.2058 0.408086C57.0787 0.279184 56.9275 0.17676 56.7608 0.10672C56.594 0.0366799 56.4151 0.000409387 56.2343 0H56.2305C55.8665 0.000176052 55.5174 0.14484 55.2596 0.402329L39.5767 16.1219C39.3846 16.3143 39.2537 16.5594 39.2007 16.8263C39.1477 17.0932 39.1749 17.3698 39.2788 17.6212C39.3828 17.8726 39.5588 18.0875 39.7846 18.2386C40.0105 18.3897 40.276 18.4702 40.5475 18.47H48.7177L34.5527 32.6635C34.3603 32.8558 34.2293 33.101 34.1761 33.368C34.123 33.6349 34.1501 33.9117 34.2541 34.1633C34.3581 34.4148 34.5342 34.6298 34.7602 34.7809C34.9862 34.932 35.2518 35.0125 35.5235 35.0122H44.0167L30.1778 48.8814C29.9857 49.0737 29.8548 49.3188 29.8018 49.5857C29.7488 49.8526 29.776 50.1292 29.8799 50.3806C29.9839 50.632 30.1599 50.8469 30.3857 50.998C30.6116 51.1491 30.8771 51.2296 31.1486 51.2295H50.8598V67.0034C50.8598 67.184 50.8953 67.3629 50.9643 67.5297C51.0333 67.6966 51.1344 67.8482 51.2618 67.9759C51.3892 68.1036 51.5405 68.2049 51.707 68.274C51.8735 68.3431 52.052 68.3786 52.2322 68.3786H60.0009C60.3648 68.3786 60.7139 68.2338 60.9713 67.9759C61.2286 67.718 61.3732 67.3682 61.3732 67.0034V51.2295H81.1604C81.4315 51.2298 81.6966 51.1497 81.9223 50.9991C82.148 50.8486 82.3241 50.6344 82.4284 50.3837C82.5326 50.1329 82.5604 49.8568 82.5082 49.5902C82.456 49.3236 82.3262 49.0785 82.1351 48.8858H82.1363ZM60.0009 48.4778C59.637 48.4779 59.288 48.6229 59.0307 48.8807C58.7734 49.1386 58.6287 49.4883 58.6285 49.853V65.627H53.6052V49.8517C53.605 49.487 53.4604 49.1373 53.203 48.8795C52.9457 48.6216 52.5967 48.4767 52.2328 48.4765H34.4614L48.3003 34.6073C48.4915 34.4149 48.6216 34.17 48.6741 33.9035C48.7267 33.6371 48.6993 33.361 48.5954 33.1101C48.4916 32.8592 48.3159 32.6448 48.0906 32.4938C47.8653 32.3428 47.6005 32.2621 47.3294 32.2618H38.8401L53.0052 18.0683C53.1329 17.9401 53.2341 17.788 53.3032 17.6206C53.3032 17.6136 53.3071 17.6059 53.3096 17.5995C53.3732 17.4399 53.4061 17.2698 53.4067 17.098C53.4063 16.9242 53.3727 16.752 53.3077 16.5908C53.3077 16.5838 53.3039 16.5761 53.3013 16.5697C53.2322 16.4018 53.1306 16.2493 53.0024 16.1208C52.8743 15.9924 52.722 15.8906 52.5545 15.8213C52.5481 15.8213 52.5411 15.8175 52.5335 15.8149C52.3742 15.7512 52.2045 15.7182 52.033 15.7177H43.8609L56.2254 3.32737L68.4717 15.7215H60.4464C60.0824 15.7215 59.7334 15.8664 59.476 16.1243C59.2187 16.3822 59.0741 16.732 59.0741 17.0967C59.0754 17.2598 59.1061 17.4212 59.1647 17.5733C59.1711 17.5918 59.1737 17.6091 59.1813 17.6264C59.2449 17.7738 59.3334 17.909 59.443 18.0261C59.4551 18.0389 59.4583 18.0562 59.4711 18.069L73.4932 32.2618H65.1315C64.8607 32.2621 64.596 32.3427 64.3709 32.4934C64.1457 32.6442 63.97 32.8583 63.866 33.1089C63.762 33.3594 63.7343 33.6352 63.7864 33.9015C63.8385 34.1678 63.968 34.4127 64.1587 34.6054L77.8693 48.4797H60.0009V48.4778Z" fill="#231F20"/>
</svg>
