<svg width="78" height="78" viewBox="0 0 78 78" fill="none" xmlns="http://www.w3.org/2000/svg">
<path d="M76.261 0H1.73963C1.27825 0 0.835767 0.183278 0.509524 0.509516C0.183281 0.835753 0 1.27823 0 1.7396V76.2598C0 76.7211 0.183281 77.1636 0.509524 77.4898C0.835767 77.8161 1.27825 77.9993 1.73963 77.9993H30.2337C30.6951 77.9993 31.1376 77.8161 31.4638 77.4898C31.79 77.1636 31.9733 76.7211 31.9733 76.2598C31.9733 75.7984 31.79 75.3559 31.4638 75.0297C31.1376 74.7034 30.6951 74.5201 30.2337 74.5201H3.47925V53.0865H17.7797C18.2411 53.0865 18.6836 52.9033 19.0098 52.577C19.3361 52.2508 19.5193 51.8083 19.5193 51.3469C19.5193 50.8856 19.3361 50.4431 19.0098 50.1169C18.6836 49.7906 18.2411 49.6073 17.7797 49.6073H3.47925V3.47919H39.1658V25.6994C39.1658 26.1607 39.3491 26.6032 39.6754 26.9294C40.0016 27.2557 40.4441 27.439 40.9055 27.439C41.3668 27.439 41.8093 27.2557 42.1356 26.9294C42.4618 26.6032 42.6451 26.1607 42.6451 25.6994V3.47919H74.5221V38.1335H28.7517C28.5232 38.1335 28.297 38.1785 28.0859 38.2659C27.8749 38.3533 27.6831 38.4815 27.5216 38.643C27.36 38.8045 27.2319 38.9963 27.1445 39.2074C27.057 39.4184 27.012 39.6446 27.012 39.8731C27.012 40.1015 27.057 40.3277 27.1445 40.5388C27.2319 40.7498 27.36 40.9416 27.5216 41.1032C27.6831 41.2647 27.8749 41.3928 28.0859 41.4803C28.297 41.5677 28.5232 41.6127 28.7517 41.6127H74.5227V74.5169H54.2686L43.6709 59.0912C43.5432 58.899 43.3786 58.7342 43.1865 58.6062C42.9945 58.4783 42.7789 58.3898 42.5524 58.346C42.3258 58.3021 42.0928 58.3038 41.8669 58.3509C41.641 58.3979 41.4268 58.4895 41.2366 58.6202C41.0464 58.7509 40.8842 58.9181 40.7592 59.1121C40.6343 59.3061 40.5493 59.523 40.509 59.7503C40.4687 59.9775 40.474 60.2104 40.5247 60.4355C40.5753 60.6607 40.6702 60.8735 40.8039 61.0615L51.9207 77.2449C52.0804 77.4777 52.2944 77.6681 52.5441 77.7996C52.7939 77.9312 53.0719 77.9999 53.3542 78H76.2604C76.7217 77.9998 77.1641 77.8165 77.4903 77.4903C77.8165 77.1641 77.9998 76.7217 78 76.2604V1.7396C77.9995 1.2785 77.8161 0.836428 77.4901 0.510322C77.1641 0.184216 76.7221 0.000693868 76.261 0Z" fill="#231F20"/>
</svg>
