<svg width="121" height="78" viewBox="0 0 121 78" fill="none" xmlns="http://www.w3.org/2000/svg">
<path d="M119.07 38.5597H108.771V21.1881C108.771 20.6759 108.567 20.1847 108.206 19.8224C107.844 19.4602 107.354 19.2566 106.843 19.2564H74.7316V1.9317C74.7313 1.41945 74.5281 0.928245 74.1666 0.566031C73.8051 0.203816 73.3149 0.000226009 72.8036 0H1.92796C1.4167 0.000226009 0.926448 0.203816 0.564935 0.566031C0.203422 0.928245 0.000225571 1.41945 0 1.9317V66.9638C0.00135173 67.4753 0.205045 67.9654 0.566436 68.3267C0.927828 68.688 1.41744 68.891 1.92796 68.8912H18.5127C18.8278 71.4065 20.0486 73.7201 21.9459 75.3973C23.8431 77.0745 26.2862 78 28.8164 78C31.3465 78 33.7896 77.0745 35.6869 75.3973C37.5841 73.7201 38.805 71.4065 39.1201 68.8912H85.6388C85.9607 71.4017 87.1845 73.7087 89.0812 75.3805C90.9779 77.0524 93.4176 77.9746 95.9438 77.9746C98.47 77.9746 100.91 77.0524 102.806 75.3805C104.703 73.7087 105.927 71.4017 106.249 68.8912H119.072C119.583 68.891 120.074 68.6874 120.435 68.3252C120.797 67.963 121 67.4718 121 66.9595V40.4914C121 39.979 120.796 39.4876 120.434 39.1254C120.072 38.7632 119.582 38.5597 119.07 38.5597ZM28.8223 74.1123C27.5253 74.1157 26.2565 73.7334 25.1764 73.0139C24.0963 72.2944 23.2536 71.27 22.7549 70.0703C22.2562 68.8707 22.124 67.5497 22.375 66.2748C22.6259 64.9998 23.2488 63.8281 24.1648 62.908C25.0807 61.9879 26.2485 61.3607 27.5204 61.106C28.7922 60.8512 30.1109 60.9802 31.3095 61.4768C32.5082 61.9733 33.5328 62.815 34.2537 63.8953C34.9747 64.9756 35.3595 66.2459 35.3595 67.5454C35.3582 69.2837 34.6695 70.9507 33.4444 72.1814C32.2192 73.4122 30.5572 74.1065 28.8223 74.1123ZM28.8223 57.1202C26.5012 57.1241 24.2478 57.9048 22.4201 59.3383C20.5923 60.7719 19.2949 62.7762 18.734 65.0329H3.85506V3.86254H70.8756V65.0321H38.8962C38.337 62.7774 37.042 60.7744 35.2169 59.3413C33.3918 57.9082 31.1411 57.1271 28.8223 57.1219V57.1202ZM95.9382 74.1123C94.6419 74.1123 93.3748 73.7272 92.2969 73.0056C91.2191 72.284 90.379 71.2584 89.8829 70.0585C89.3869 68.8585 89.2571 67.5381 89.51 66.2643C89.7629 64.9904 90.3871 63.8203 91.3037 62.9019C92.2203 61.9835 93.3882 61.3581 94.6596 61.1047C95.931 60.8513 97.2488 60.9813 98.4464 61.4784C99.6441 61.9754 100.668 62.8171 101.388 63.897C102.108 64.977 102.492 66.2466 102.492 67.5454C102.492 68.4079 102.323 69.2619 101.993 70.0587C101.664 70.8555 101.181 71.5794 100.572 72.1892C99.9638 72.799 99.2411 73.2827 98.4458 73.6127C97.6506 73.9427 96.7982 74.1124 95.9374 74.1123H95.9382ZM117.143 65.0321H106.025C105.47 62.7729 104.175 60.7655 102.347 59.3305C100.519 57.8954 98.2638 57.1156 95.9417 57.1156C93.6195 57.1156 91.3644 57.8954 89.5366 59.3305C87.7087 60.7655 86.4137 62.7729 85.8584 65.0321H74.7316V23.1181H104.92V40.4914C104.92 41.0037 105.123 41.4949 105.485 41.8571C105.847 42.2193 106.337 42.4229 106.848 42.4231H117.147V65.0321H117.143Z" fill="black"/>
</svg>
