<svg width="79" height="78" viewBox="0 0 79 78" fill="none" xmlns="http://www.w3.org/2000/svg">
<path d="M51.931 27.3732L26.2081 47.8918C25.9629 48.0984 25.808 48.3928 25.7761 48.7122C25.7443 49.0316 25.838 49.3508 26.0375 49.602C26.237 49.8532 26.5264 50.0165 26.8441 50.0571C27.1619 50.0977 27.4829 50.0124 27.7389 49.8195L53.4581 29.3017C53.7033 29.095 53.8582 28.8007 53.8901 28.4813C53.9219 28.1619 53.8282 27.8426 53.6287 27.5914C53.4292 27.3403 53.1398 27.177 52.8221 27.1364C52.5043 27.0958 52.1833 27.181 51.9273 27.3739L51.931 27.3732Z" fill="black"/>
<path d="M29.3401 35.1518C30.4288 35.9537 31.7446 36.3862 33.0958 36.3863C33.4284 36.3872 33.7606 36.3624 34.0894 36.3121C35.7616 36.0484 37.2613 35.1311 38.2598 33.7614C39.2583 32.3916 39.6743 30.681 39.4166 29.0045C39.2545 27.9649 38.8392 26.9813 38.2073 26.141C37.5754 25.3006 36.7465 24.6293 35.794 24.1865C34.8414 23.7437 33.7946 23.5431 32.7463 23.6025C31.6979 23.6618 30.6803 23.9793 29.7836 24.5267C28.8869 25.0741 28.1387 25.8347 27.6053 26.741C27.0718 27.6474 26.7696 28.6715 26.7254 29.7228C26.6812 30.7741 26.8963 31.8201 27.3517 32.7682C27.8071 33.7164 28.4888 34.5373 29.3364 35.1584L29.3401 35.1518ZM32.5046 26.0944C33.2724 25.9746 34.0584 26.0856 34.7632 26.4135C35.4681 26.7414 36.06 27.2713 36.4643 27.9364C36.8685 28.6014 37.0669 29.3716 37.0343 30.1496C37.0018 30.9276 36.7397 31.6785 36.2812 32.3072C35.8228 32.936 35.1886 33.4144 34.4588 33.6819C33.7291 33.9494 32.9365 33.9941 32.1814 33.8103C31.4263 33.6264 30.7426 33.2223 30.2167 32.6491C29.6908 32.0758 29.3463 31.3591 29.2269 30.5897C29.1433 30.0784 29.1621 29.5555 29.2822 29.0515C29.4022 28.5475 29.6212 28.0725 29.9262 27.6541C30.2313 27.2358 30.6163 26.8824 31.059 26.6146C31.5016 26.3468 31.9931 26.17 32.5046 26.0944Z" fill="black"/>
<path d="M46.6216 40.7593C45.3583 40.7594 44.1234 41.1349 43.0731 41.8384C42.0228 42.5418 41.2042 43.5415 40.7209 44.7111C40.2375 45.8807 40.1111 47.1677 40.3577 48.4093C40.6042 49.6509 41.2126 50.7913 42.106 51.6864C42.9993 52.5815 44.1374 53.1911 45.3765 53.438C46.6155 53.6849 47.8998 53.5581 49.0669 53.0736C50.234 52.5892 51.2315 51.7687 51.9333 50.7161C52.6352 49.6635 53.0098 48.426 53.0098 47.1601C53.0076 45.463 52.3339 43.8361 51.1363 42.6362C49.9387 41.4362 48.3151 40.7612 46.6216 40.7593ZM46.6216 51.0971C45.8446 51.0969 45.0851 50.8657 44.4392 50.4329C43.7933 50 43.2899 49.385 42.9928 48.6655C42.6957 47.9461 42.6182 47.1545 42.77 46.3908C42.9218 45.6272 43.2962 44.9258 43.8458 44.3754C44.3953 43.825 45.0955 43.4502 45.8576 43.2985C46.6197 43.1468 47.4096 43.225 48.1274 43.5231C48.8452 43.8213 49.4587 44.326 49.8902 44.9735C50.3218 45.621 50.552 46.3822 50.5519 47.1609C50.5503 48.2047 50.1356 49.2054 49.3988 49.9433C48.662 50.6812 47.6633 51.0962 46.6216 51.0971Z" fill="black"/>
<path d="M71.2552 31.8077C68.8188 30.5917 66.298 29.3335 65.6143 27.7075C64.9137 26.0482 65.8777 23.4072 66.8092 20.8537C68.0745 17.3852 69.3841 13.7989 67.0083 11.4204C64.671 9.07742 61.2053 9.88337 57.8522 10.6634C55.4512 11.2217 52.9689 11.7992 51.2805 11.0838C49.6364 10.3861 48.2928 8.2611 46.9928 6.20658C45.1512 3.29717 43.0655 0 39.4926 0C35.9197 0 33.8694 3.3728 32.0619 6.34819C30.7811 8.45906 29.456 10.6426 27.8127 11.3396C26.1273 12.0543 23.6153 11.4204 21.1855 10.8079C17.8072 9.95677 14.3135 9.07668 11.9732 11.4241C9.61 13.7907 10.7738 17.3971 11.8992 20.8856C12.7227 23.4361 13.5736 26.0756 12.8677 27.7453C12.1811 29.3765 9.77351 30.6221 7.44582 31.8284C4.22361 33.4982 0.572266 35.3873 0.572266 38.9996C0.572266 42.5978 4.08229 44.5656 7.17873 46.3013C9.39839 47.5447 11.692 48.8304 12.3824 50.4682C13.0912 52.1475 12.3491 54.7285 11.6321 57.2242C10.6429 60.663 9.62035 64.2204 11.9739 66.5774C14.3993 69.0071 18.2874 66.9845 22.0483 65.0263C24.7814 63.6042 27.8793 61.9864 29.4908 62.6737C31.063 63.341 32.1174 66.5967 33.0474 69.469C34.4044 73.6626 35.8087 78 39.4941 78C43.1795 78 44.5408 73.6589 45.8571 69.4601C46.7583 66.5789 47.7808 63.3121 49.3509 62.6471C50.9616 61.9649 54.0958 63.5835 56.8592 65.0122C60.66 66.977 64.5888 69.0078 67.0127 66.5789C69.39 64.1974 68.0878 60.6615 66.8292 57.2412C65.9044 54.727 64.947 52.1253 65.6454 50.4689C66.3328 48.8378 68.8432 47.5462 71.2685 46.2946C74.7801 44.4841 78.4107 42.6127 78.4107 39.0004C78.4107 35.3881 74.7712 33.5649 71.2552 31.8077ZM70.1402 44.1015C67.3235 45.5532 64.4113 47.0554 63.3769 49.5073C62.2996 52.063 63.428 55.1274 64.5186 58.0909C65.5544 60.9084 66.5348 63.5672 65.2703 64.8335C64.1168 65.9902 60.8568 64.3064 57.9824 62.8198C54.5789 61.0611 51.0622 59.2431 48.389 60.3731C45.7698 61.4852 44.6156 65.1613 43.5057 68.7194C42.4588 72.0692 41.3749 75.5325 39.4918 75.5325C37.5933 75.5325 36.4694 72.0618 35.3833 68.7046C34.2379 65.1657 33.0533 61.5052 30.4467 60.4005C29.8637 60.1595 29.238 60.0395 28.6074 60.0476C26.2686 60.0476 23.5561 61.4563 20.9125 62.8354C18.0773 64.3123 14.8617 65.9865 13.7097 64.8306C12.3824 63.5012 13.1637 60.7816 13.9924 57.9018C14.8284 54.9939 15.6941 51.9881 14.6449 49.5036C13.6246 47.0887 10.9573 45.5932 8.37808 44.1474C5.62866 42.6082 3.03165 41.1498 3.03165 38.9996C3.03165 36.8895 5.7241 35.4934 8.57563 34.0172C11.291 32.6084 14.1004 31.1545 15.1325 28.7048C16.1943 26.1891 15.2006 23.1077 14.2387 20.1278C13.2998 17.2177 12.412 14.4677 13.7119 13.1672C15.0674 11.8074 17.7488 12.4828 20.587 13.1983C23.4089 13.9101 26.33 14.6464 28.7709 13.6098C31.1437 12.6044 32.679 10.0754 34.1624 7.6294C35.7732 4.97357 37.2951 2.46528 39.4896 2.46528C41.7093 2.46528 43.2631 4.92611 44.9137 7.53078C46.4157 9.90339 47.968 12.3598 50.3201 13.3577C52.7447 14.3854 55.6229 13.7159 58.4056 13.0678C61.2283 12.4117 63.8948 11.7911 65.2681 13.1672C66.534 14.4351 65.5448 17.1443 64.4986 20.0121C63.4035 23.0142 62.2708 26.1186 63.3488 28.6721C64.3898 31.1367 67.3213 32.6018 70.1558 34.0172C73.1331 35.5045 75.9454 36.9088 75.9454 38.9996C75.9483 41.1061 73.1272 42.5585 70.1402 44.1015Z" fill="black"/>
</svg>
