<svg width="74" height="84" viewBox="0 0 74 84" fill="none" xmlns="http://www.w3.org/2000/svg">
<path d="M44.1046 33.6271C43.9741 33.5116 43.8223 33.423 43.6577 33.3664C43.4931 33.3097 43.319 33.2862 43.1453 33.297C42.9716 33.3078 42.8017 33.3529 42.6454 33.4296C42.4891 33.5062 42.3494 33.613 42.2343 33.7439L23.8706 54.5927C23.6453 54.8578 23.5329 55.2009 23.5575 55.5482C23.5822 55.8955 23.742 56.2191 24.0026 56.4495C24.2631 56.6799 24.6035 56.7984 24.9504 56.7797C25.2974 56.761 25.6231 56.6065 25.8575 56.3494L44.2211 35.5006C44.4534 35.2366 44.5717 34.8909 44.5498 34.5396C44.528 34.1883 44.3678 33.8601 44.1046 33.6271Z" fill="black"/>
<path d="M27.3599 42.6393C28.7309 42.0489 29.8344 40.9697 30.4568 39.6107C31.0792 38.2517 31.1762 36.7095 30.729 35.283C30.2817 33.8564 29.3221 32.6469 28.0359 31.8888C26.7498 31.1306 25.2286 30.8777 23.767 31.1791C22.3055 31.4804 21.0075 32.3146 20.1245 33.52C19.2416 34.7254 18.8364 36.2163 18.9875 37.704C19.1387 39.1916 19.8353 40.5701 20.9426 41.5725C22.0499 42.5748 23.4889 43.1298 24.9811 43.1298C25.799 43.1294 26.6083 42.9625 27.3599 42.6393ZM21.8289 38.3842C21.6508 37.9715 21.5564 37.5275 21.551 37.0779C21.5457 36.6284 21.6296 36.1822 21.7979 35.7654C22.0546 35.1297 22.4948 34.5851 23.0622 34.2014C23.6295 33.8178 24.2981 33.6124 24.9825 33.6117C25.6005 33.6127 26.2066 33.7814 26.7366 34.0998C27.2666 34.4183 27.7006 34.8746 27.9926 35.4204C28.2846 35.9661 28.4237 36.5809 28.3952 37.1995C28.3666 37.818 28.1714 38.4173 27.8303 38.9337C27.4892 39.45 27.0149 39.8642 26.4578 40.1322C25.9007 40.4002 25.2816 40.512 24.6662 40.4558C24.0508 40.3996 23.4621 40.1775 22.9626 39.813C22.463 39.4485 22.0713 38.9552 21.8289 38.3856V38.3842Z" fill="black"/>
<path d="M72.1233 36.5056C72.1183 36.331 72.0789 36.1591 72.0076 35.9998C71.9362 35.8404 71.8341 35.6968 71.7073 35.577C71.581 35.4566 71.4319 35.3626 71.269 35.3007C71.106 35.2387 70.9323 35.2099 70.758 35.216L63.1421 35.4489L64.8612 30.0273C64.9674 29.6916 64.9362 29.3274 64.7745 29.0147C64.6127 28.702 64.3338 28.4664 63.9988 28.3598L51.4183 24.3538L49.2747 1.20325C49.2264 0.86756 49.0584 0.560753 48.8019 0.339561C48.5453 0.11837 48.2175 -0.00224169 47.8791 3.15573e-05C47.6091 5.93752e-05 47.3457 0.0826956 47.1239 0.236882C46.9021 0.391069 46.7326 0.609451 46.6381 0.862807L39.3117 20.5L17.4653 13.5433C17.1303 13.4377 16.7672 13.4693 16.4553 13.6312C16.1435 13.7932 15.9083 14.0723 15.8013 14.4075L1.01575 61.0363C0.963075 61.2025 0.9436 61.3775 0.958436 61.5513C0.973271 61.7251 1.02213 61.8942 1.10221 62.0491C1.1823 62.2039 1.29204 62.3415 1.42517 62.4538C1.55831 62.5661 1.71223 62.6511 1.87813 62.7038L25.6181 70.2642L25.9712 82.7097C25.9811 83.0552 26.125 83.3831 26.3722 83.624C26.6195 83.8649 26.9507 83.9998 27.2955 84H27.3337L72.1021 82.7352C72.276 82.7303 72.4473 82.6912 72.6061 82.62C72.765 82.5488 72.9082 82.4469 73.0277 82.3201C73.1472 82.1934 73.2407 82.0443 73.3026 81.8814C73.3646 81.7185 73.394 81.5449 73.389 81.3706L72.1233 36.5056ZM47.1565 7.05724L48.6765 23.4776L41.8402 21.3012L47.1565 7.05724ZM17.9265 16.4763L61.9343 30.4902L47.9497 74.5902L3.94122 60.5762L17.9265 16.4763ZM28.581 81.3083L28.2928 71.1164L48.4109 77.5232C48.7458 77.6295 49.1092 77.5983 49.4211 77.4362C49.733 77.2741 49.968 76.9946 50.0742 76.659L62.2931 38.1342L69.5135 37.9126L70.7022 80.1172L28.581 81.3083Z" fill="black"/>
<path d="M43.234 49.5511C41.9315 49.027 40.4879 48.9717 39.1493 49.3946C37.8106 49.8174 36.6597 50.6923 35.8926 51.8702C35.1255 53.048 34.7896 54.456 34.9422 55.8542C35.0949 57.2524 35.7265 58.5543 36.7296 59.5381C37.7327 60.5219 39.0452 61.1267 40.4434 61.2496C41.8416 61.3724 43.2391 61.0057 44.3977 60.2118C45.5564 59.4179 46.4045 58.246 46.7976 56.8958C47.1907 55.5456 47.1044 54.1005 46.5536 52.8069C46.2425 52.0712 45.7889 51.4047 45.2191 50.8458C44.6493 50.287 43.9746 49.8469 43.234 49.5511ZM44.1395 56.4731C43.8435 57.2073 43.3027 57.816 42.6091 58.1955C41.9156 58.575 41.1122 58.7018 40.3359 58.5544C39.5595 58.407 38.8581 57.9945 38.3512 57.387C37.8442 56.7796 37.5631 56.0149 37.5556 55.2231C37.5482 54.4313 37.8149 53.6613 38.3103 53.0444C38.8057 52.4275 39.4991 52.0018 40.2726 51.8397C41.0461 51.6777 41.8517 51.7893 42.5522 52.1556C43.2528 52.5219 43.805 53.1202 44.1147 53.8487C44.2918 54.2628 44.3852 54.708 44.3894 55.1584C44.3937 55.6089 44.3087 56.0558 44.1395 56.4731Z" fill="black"/>
</svg>
