<svg width="26" height="26" viewBox="0 0 26 26" fill="none" xmlns="http://www.w3.org/2000/svg">
<path d="M1.47484 24.4246C1.01039 23.9601 0.778704 23.4137 0.779796 22.7853C0.778704 22.1569 1.01039 21.6105 1.47484 21.1461L9.67117 12.9497L1.47484 4.75339C1.01039 4.28894 0.778157 3.74197 0.778158 3.11249C0.778157 2.4852 1.01039 1.93932 1.47484 1.47486C1.9393 1.0104 2.48573 0.777628 3.11411 0.776535C3.7425 0.777628 4.28892 1.0104 4.75338 1.47486L12.9497 9.67119L21.146 1.47486C21.6105 1.0104 22.1575 0.778175 22.7869 0.778175C23.4142 0.778175 23.9601 1.0104 24.4246 1.47486C24.889 1.93932 25.1218 2.48574 25.1229 3.11413C25.1218 3.74251 24.889 4.28894 24.4246 4.75339L16.2282 12.9497L24.4246 21.1461C24.889 21.6105 25.1213 22.1564 25.1213 22.7837C25.1213 23.4132 24.889 23.9601 24.4246 24.4246C23.9601 24.889 23.4137 25.1207 22.7853 25.1196C22.1569 25.1207 21.6105 24.889 21.146 24.4246L12.9497 16.2283L4.75338 24.4246C4.28892 24.889 3.74304 25.1213 3.11575 25.1213C2.48627 25.1213 1.9393 24.889 1.47484 24.4246Z" fill="black"/>
</svg>
