<svg width="40" height="40" viewBox="0 0 40 40" fill="none" xmlns="http://www.w3.org/2000/svg">
<path d="M19.9582 0C16.0108 0 12.1521 1.17298 8.87002 3.37061C5.58792 5.56824 3.02982 8.69181 1.51924 12.3463C0.00864757 16.0009 -0.386591 20.0222 0.3835 23.9018C1.15359 27.7814 3.05443 31.3451 5.84563 34.1421C8.63683 36.9392 12.193 38.844 16.0646 39.6157C19.9361 40.3874 23.949 39.9913 27.5959 38.4776C31.2428 36.9638 34.3598 34.4004 36.5528 31.1114C38.7459 27.8224 39.9164 23.9556 39.9164 20C39.9164 14.6957 37.8137 9.60859 34.0708 5.85786C30.3279 2.10714 25.2514 0 19.9582 0ZM26.3039 30.305C26.2288 30.4908 26.1151 30.6585 25.9702 30.7968C25.8254 30.9352 25.6528 31.041 25.4639 31.1072C25.2751 31.1734 25.0743 31.1986 24.875 31.181C24.6757 31.1633 24.4824 31.1034 24.3081 31.005L18.8864 26.789L15.4087 30C15.328 30.0597 15.2337 30.0981 15.1343 30.1118C15.0349 30.1254 14.9337 30.1138 14.8399 30.078L15.5065 24.101L15.5275 24.118L15.5415 24C15.5415 24 25.291 15.1 25.6882 14.726C26.0854 14.352 25.9576 14.266 25.9576 14.266C25.9806 13.805 25.2361 14.266 25.2361 14.266L12.3182 22.6L6.93847 20.762C6.93847 20.762 6.11221 20.462 6.03437 19.812C5.95653 19.162 6.96542 18.812 6.96542 18.812L28.3546 10.3C28.3546 10.3 30.1129 9.515 30.1129 10.815L26.3039 30.305Z" fill="white"/>
</svg>
