<svg width="15" height="19" viewBox="0 0 15 19" fill="none" xmlns="http://www.w3.org/2000/svg">
<path d="M6.98233 5.01648L8.61127 1.48796C8.66118 1.38975 8.73257 1.30215 8.82096 1.2306C8.90936 1.15904 9.01287 1.10509 9.12505 1.07208C9.23723 1.03908 9.35567 1.02775 9.47297 1.03878C9.59028 1.04982 9.70395 1.08299 9.80688 1.13622L12.6329 2.4809C13.0359 2.66297 13.3683 2.95542 13.5842 3.31802C13.8 3.68062 13.8888 4.09554 13.8384 4.50569C13.1113 9.34778 10.6293 13.8162 6.7946 17.1865C6.46318 17.4629 6.04647 17.6375 5.60193 17.6863C5.15738 17.735 4.70689 17.6555 4.31255 17.4587L1.45927 16.1021C1.35187 16.0557 1.25595 15.9894 1.17751 15.9074C1.09907 15.8253 1.0398 15.7293 1.0034 15.6254C0.967005 15.5214 0.954266 15.4117 0.965983 15.3032C0.9777 15.1946 1.01362 15.0895 1.0715 14.9945L3.24518 11.7267C3.36582 11.5593 3.55066 11.4402 3.76285 11.3931C3.97503 11.3459 4.19899 11.3743 4.39006 11.4724L5.77601 12.1313C5.84709 12.1663 5.92844 12.1792 6.00794 12.1681C6.08744 12.157 6.16084 12.1225 6.2172 12.0698C7.61313 10.6577 8.57625 8.92857 9.00833 7.05874C9.00833 7.05874 9.0096 6.91059 8.9731 6.84444L8.80578 6.69165L7.42399 6.03574C7.22752 5.94794 7.0736 5.79568 6.99253 5.60896C6.91145 5.42223 6.9091 5.21455 6.98594 5.0268L6.98233 5.01648Z" stroke="white" stroke-width="1.5" stroke-linecap="round" stroke-linejoin="round"/>
</svg>
