<svg width="41" height="40" viewBox="0 0 41 40" fill="none" xmlns="http://www.w3.org/2000/svg">
<path d="M26.8824 0H14.637C3.45244 0 0.791016 2.667 0.791016 13.854V26.125C0.791016 37.333 3.43148 40 14.6161 40H26.8614C38.046 40 40.7074 37.354 40.7074 26.146V13.875C40.7074 2.667 38.0669 0 26.8824 0ZM33.0155 28.542H30.1046C29.0069 28.542 28.6706 27.642 26.6948 25.667C24.9694 24 24.2419 23.792 23.8008 23.792C23.2021 23.792 23.0314 23.959 23.0314 24.792V27.417C23.0314 28.125 22.8029 28.542 20.9528 28.542C19.1566 28.4218 17.4147 27.8756 15.8705 26.9484C14.3264 26.0212 13.0242 24.7395 12.0714 23.209C9.81175 20.3883 8.23997 17.0783 7.481 13.542C7.481 13.104 7.64765 12.709 8.47891 12.709H11.3898C12.1382 12.709 12.4087 13.042 12.7001 13.809C14.1141 17.976 16.5251 21.601 17.503 21.601C17.8772 21.601 18.0439 21.434 18.0439 20.501V16.208C17.9191 14.25 16.8793 14.083 16.8793 13.375C16.8929 13.1881 16.9787 13.0138 17.1184 12.8893C17.2582 12.7647 17.4409 12.6997 17.6277 12.708H22.2012C22.8249 12.708 23.0324 13.021 23.0324 13.771V19.563C23.0324 20.188 23.3029 20.396 23.4895 20.396C23.8637 20.396 24.1551 20.188 24.8406 19.496C26.3147 17.6944 27.5192 15.6874 28.4161 13.538C28.5077 13.2794 28.6813 13.0579 28.9103 12.9075C29.1394 12.757 29.4113 12.6859 29.6845 12.705H32.5954C33.4686 12.705 33.6562 13.143 33.4686 13.768C32.4108 16.1454 31.1017 18.4023 29.5637 20.5C29.2514 20.979 29.1267 21.229 29.5637 21.792C29.8551 22.23 30.874 23.084 31.5596 23.892C32.5574 24.8896 33.3859 26.0438 34.0124 27.309C34.2619 28.122 33.8458 28.538 33.0145 28.538L33.0155 28.542Z" fill="white"/>
</svg>
