<svg width="41" height="40" viewBox="0 0 41 40" fill="none" xmlns="http://www.w3.org/2000/svg">
<path d="M40.4984 9.1C40.476 8.23714 40.4094 7.37601 40.2988 6.52C40.1498 5.77025 39.9015 5.04382 39.5604 4.36C39.2037 3.61821 38.7246 2.94205 38.1433 2.36C37.5568 1.78441 36.8832 1.30518 36.1475 0.94C35.4642 0.604889 34.7393 0.362747 33.992 0.22C33.146 0.092999 32.2927 0.0195202 31.4374 0H9.66301C8.80196 0.0224728 7.94262 0.0892274 7.0884 0.2C6.34022 0.349337 5.61531 0.598207 4.93292 0.94C4.19268 1.29747 3.51793 1.77755 2.9371 2.36C2.36271 2.94782 1.88448 3.62279 1.52007 4.36C1.18566 5.04473 0.94402 5.77115 0.801571 6.52C0.674836 7.36787 0.601511 8.22289 0.582031 9.08V30.9C0.604457 31.7629 0.671072 32.624 0.781613 33.48C0.930638 34.2298 1.17899 34.9562 1.52007 35.64C1.87679 36.3818 2.35586 37.0579 2.9371 37.64C3.52369 38.2156 4.19725 38.6948 4.93292 39.06C5.61621 39.3951 6.34112 39.6373 7.0884 39.78C7.9345 39.907 8.78774 39.9805 9.64305 40H31.4174C32.2785 39.9775 33.1378 39.9108 33.992 39.8C34.7402 39.6507 35.4651 39.4018 36.1475 39.06C36.8878 38.7025 37.5625 38.2225 38.1433 37.64C38.7177 37.0522 39.196 36.3772 39.5604 35.64C39.8948 34.9553 40.1364 34.2288 40.2789 33.48C40.4056 32.6321 40.4789 31.7771 40.4984 30.92V9.1ZM20.9993 34C18.6024 33.9882 16.2475 33.3689 14.1536 32.2L6.56949 34.2L8.56531 26.76C7.01956 24.029 6.4144 20.8638 6.84336 17.7536C7.27232 14.6434 8.71152 11.7614 10.9385 9.55287C13.1656 7.34436 16.0565 5.93231 19.1644 5.53494C22.2724 5.13757 25.4245 5.777 28.1335 7.35442C30.8426 8.93184 32.9578 11.3594 34.1523 14.262C35.3468 17.1646 35.5541 20.3807 34.7422 23.4132C33.9303 26.4457 32.1443 29.1258 29.6602 31.0393C27.1762 32.9529 24.1324 33.9934 20.9993 34ZM20.9993 7.74C18.8833 7.76426 16.8116 8.34997 14.995 9.43748C13.1783 10.525 11.6817 12.0755 10.6575 13.931C9.6333 15.7866 9.11805 17.881 9.16422 20.0011C9.2104 22.1211 9.81634 24.191 10.9204 26L11.1998 26.46L10.0023 30.84L14.5528 29.6L14.9918 29.86C16.8072 30.9315 18.8725 31.5041 20.9793 31.52C24.1553 31.52 27.2011 30.2557 29.4468 28.0053C31.6926 25.7548 32.9542 22.7026 32.9542 19.52C32.9542 16.3374 31.6926 13.2852 29.4468 11.0347C27.2011 8.78428 24.1553 7.52 20.9793 7.52L20.9993 7.74ZM27.9846 24.78C27.7232 25.2169 27.3732 25.594 26.9572 25.8869C26.5412 26.1797 26.0685 26.3818 25.5697 26.48C24.8243 26.6165 24.057 26.5685 23.3344 26.34C22.6545 26.127 21.988 25.8732 21.3386 25.58C18.8712 24.3393 16.767 22.4788 15.2313 20.18C14.3969 19.115 13.8905 17.8291 13.7744 16.48C13.7625 15.9196 13.8683 15.3629 14.0849 14.8461C14.3015 14.3293 14.6241 13.8638 15.0318 13.48C15.1518 13.3436 15.2991 13.2339 15.4642 13.1581C15.6292 13.0823 15.8082 13.0421 15.9898 13.04H16.5486C16.7681 13.04 17.0675 13.04 17.3469 13.66C17.6263 14.28 18.3648 16.14 18.4646 16.32C18.5136 16.4159 18.5392 16.5222 18.5392 16.63C18.5392 16.7378 18.5136 16.8441 18.4646 16.94C18.3763 17.1573 18.2552 17.3597 18.1053 17.54C17.9257 17.76 17.7261 18.02 17.5665 18.18C17.4515 18.2556 17.3706 18.3731 17.3408 18.5075C17.3109 18.642 17.3346 18.7828 17.4068 18.9C17.9498 19.8184 18.622 20.6536 19.4026 21.38C20.2527 22.1327 21.2246 22.7347 22.2766 23.16C22.6358 23.34 22.8554 23.32 23.055 23.16C23.4706 22.7243 23.851 22.2562 24.1926 21.76C24.4321 21.4 24.6716 21.46 24.9909 21.58C25.3102 21.7 27.0865 22.56 27.4458 22.74C27.805 22.92 28.0245 23 28.1243 23.16C28.2109 23.6834 28.1628 24.2204 27.9846 24.72V24.78Z" fill="white"/>
</svg>
